<svg xmlns="http://www.w3.org/2000/svg" viewBox="0 0 736 267" width="736" height="267"><g fill="none"><title>Timeline1</title><path fill="#fff" d="M0 0h736v267H0z"/><title>Layer 1</title><path d="M108.633 244h510.1a.5.5 0 1 0 0-1h-510.1a.5.5 0 0 0 0 1zm518.1-1h-8v1h8zm-4.353-3.146l4 4v-.708l-4 4 .707.708 4-4 .353-.354-.353-.354-4-4zM94.033 58.4c3.868 0 7-3.133 7-7s-3.132-7-7-7c-3.867 0-7 3.133-7 7s3.133 7 7 7zm0 3.5c-4.672 0-14 2.345-14 7v3.5h28v-3.5c0-4.655-9.327-7-14-7zm0 36.3c3.868 0 7-3.133 7-7 0-3.868-3.132-7-7-7-3.867 0-7 3.132-7 7 0 3.867 3.133 7 7 7zm0 3.5c-4.672 0-14 2.345-14 7v3.5h28v-3.5c0-4.655-9.327-7-14-7zm0 37.5c3.868 0 7-3.132 7-7 0-3.867-3.132-7-7-7-3.867 0-7 3.133-7 7 0 3.868 3.133 7 7 7zm0 3.5c-4.672 0-14 2.345-14 7v3.5h28v-3.5c0-4.655-9.327-7-14-7zm0 37.5c3.868 0 7-3.132 7-7 0-3.867-3.132-7-7-7-3.867 0-7 3.133-7 7 0 3.868 3.133 7 7 7zm0 3.5c-4.672 0-14 2.345-14 7v3.5h28v-3.5c0-4.655-9.327-7-14-7z" fill="#616161"/><circle cx="156.368" cy="58.5" r="7.5" fill="#616161"/><circle cx="173.483" cy="98.45" r="7.5" fill="#616161"/><circle cx="156.368" cy="98.45" r="7.5" fill="#616161"/><circle cx="187.983" cy="98.45" r="5" fill="#616161"/><circle cx="246.5" cy="58.5" r="14" fill="#616161"/><circle cx="213.202" cy="58.5" r="7.5" fill="#616161"/><circle cx="336" cy="58.4" r="7.5" fill="#616161"/><circle cx="188.351" cy="139.2" r="7.5" fill="#616161"/><circle cx="155.034" cy="181" r="7.5" fill="#616161"/><circle cx="285.467" cy="99" r="5" fill="#616161"/><circle cx="177" cy="180.2" r="11" fill="#616161"/><circle cx="326.5" cy="180" r="14" fill="#616161"/><text transform="translate(268.967 228.5)" fill="#757575"><tspan font-family="Roboto" font-size="10" font-weight="400" x="0" y="9">Historical</tspan></text><text transform="translate(458.633 224.5)" fill="#757575"><tspan font-family="Roboto" font-size="10" font-weight="400" x="0" y="9">Now</tspan></text><text transform="translate(632.967 238.5)" fill="#757575"><tspan font-family="Roboto" font-size="10" font-weight="400" x="0" y="9">Time</tspan></text><text transform="translate(514.383 228.5)" fill="#757575"><tspan font-family="Roboto" font-size="10" font-weight="400" x="0" y="9">Unknown</tspan></text><circle cx="401.5" cy="58.5" r="5" fill="#616161"/><circle cx="433.567" cy="59.5" r="11" fill="#616161"/><circle cx="388.633" cy="98.7" r="7.5" fill="#616161"/><circle cx="417" cy="98.5" r="11" fill="#616161"/><circle cx="448.367" cy="98.7" r="7.5" fill="#616161"/><circle cx="290.5" cy="139.5" r="5" fill="#616161"/><circle cx="309.633" cy="99" r="11" fill="#616161"/><circle cx="388.633" cy="181" r="7.5" fill="#616161"/><circle cx="422" cy="139.5" r="7.5" fill="#616161"/><path d="M108.633 59h520a.5.5 0 1 0 0-1h-520a.5.5 0 0 0 0 1zm0 40h520a.5.5 0 1 0 0-1h-520a.5.5 0 0 0 0 1zm0 41h520a.5.5 0 1 0 0-1h-520a.5.5 0 0 0 0 1zm0 41h520a.5.5 0 1 0 0-1h-520a.5.5 0 0 0 0 1z" fill="#616161"/><path d="M141.882 244.083h326.209a.5.5 0 0 0 0-1H141.882a.5.5 0 0 0 0 1z" fill="#0f9d58"/><circle cx="141.973" cy="243.583" r="3.5" fill="#479a5f"/><circle cx="465.091" cy="243.583" r="3.5" fill="#479a5f"/><path d="M472.133 243.917h126.5a.5.5 0 1 0 0-1h-126.5a.5.5 0 0 0 0 1z" fill="#db6b5c"/><circle cx="472.221" cy="243.5" r="3.5" fill="#cd7161"/><circle cx="596.017" cy="243.5" r="3.5" fill="#cd7161"/><path d="M468.633 220.5c-.3 0-.5-.2-.5-.5v-1c0-.3.2-.5.5-.5s.5.2.5.5v1c0 .3-.2.5-.5.5zm0-5c-.3 0-.5-.2-.5-.5v-4c0-.3.2-.5.5-.5s.5.2.5.5v4c0 .3-.2.5-.5.5zm0-8c-.3 0-.5-.2-.5-.5v-4c0-.3.2-.5.5-.5s.5.2.5.5v4c0 .3-.2.5-.5.5zm0-8c-.3 0-.5-.2-.5-.5v-4c0-.3.2-.5.5-.5s.5.2.5.5v4c0 .3-.2.5-.5.5zm0-8c-.3 0-.5-.2-.5-.5v-4c0-.3.2-.5.5-.5s.5.2.5.5v4c0 .3-.2.5-.5.5zm0-8c-.3 0-.5-.2-.5-.5v-4c0-.3.2-.5.5-.5s.5.2.5.5v4c0 .3-.2.5-.5.5zm0-8c-.3 0-.5-.2-.5-.5v-4c0-.3.2-.5.5-.5s.5.2.5.5v4c0 .3-.2.5-.5.5zm0-8c-.3 0-.5-.2-.5-.5v-4c0-.3.2-.5.5-.5s.5.2.5.5v4c0 .3-.2.5-.5.5zm0-8c-.3 0-.5-.2-.5-.5v-4c0-.3.2-.5.5-.5s.5.2.5.5v4c0 .3-.2.5-.5.5zm0-8c-.3 0-.5-.2-.5-.5v-4c0-.3.2-.5.5-.5s.5.2.5.5v4c0 .3-.2.5-.5.5zm0-8c-.3 0-.5-.2-.5-.5v-4c0-.3.2-.5.5-.5s.5.2.5.5v4c0 .3-.2.5-.5.5zm0-8c-.3 0-.5-.2-.5-.5v-4c0-.3.2-.5.5-.5s.5.2.5.5v4c0 .3-.2.5-.5.5zm0-8c-.3 0-.5-.2-.5-.5v-4c0-.3.2-.5.5-.5s.5.2.5.5v4c0 .3-.2.5-.5.5zm0-8c-.3 0-.5-.2-.5-.5v-4c0-.3.2-.5.5-.5s.5.2.5.5v4c0 .3-.2.5-.5.5zm0-8c-.3 0-.5-.2-.5-.5v-4c0-.3.2-.5.5-.5s.5.2.5.5v4c0 .3-.2.5-.5.5zm0-8c-.3 0-.5-.2-.5-.5v-4c0-.3.2-.5.5-.5s.5.2.5.5v4c0 .3-.2.5-.5.5zm0-8c-.3 0-.5-.2-.5-.5v-4c0-.3.2-.5.5-.5s.5.2.5.5v4c0 .3-.2.5-.5.5zm0-8c-.3 0-.5-.2-.5-.5v-4c0-.3.2-.5.5-.5s.5.2.5.5v4c0 .3-.2.5-.5.5zm0-8c-.3 0-.5-.2-.5-.5v-4c0-.3.2-.5.5-.5s.5.2.5.5v4c0 .3-.2.5-.5.5zm0-8c-.3 0-.5-.2-.5-.5v-4c0-.3.2-.5.5-.5s.5.2.5.5v4c0 .3-.2.5-.5.5zm0-8c-.3 0-.5-.2-.5-.5v-4c0-.3.2-.5.5-.5s.5.2.5.5v4c0 .3-.2.5-.5.5zm0-8c-.3 0-.5-.2-.5-.5v-4c0-.3.2-.5.5-.5s.5.2.5.5v4c0 .3-.2.5-.5.5zm0-8c-.3 0-.5-.2-.5-.5v-4c0-.3.2-.5.5-.5s.5.2.5.5v4c0 .3-.2.5-.5.5zm0-8c-.3 0-.5-.2-.5-.5v-4c0-.3.2-.5.5-.5s.5.2.5.5v4c0 .3-.2.5-.5.5zm0-8c-.3 0-.5-.2-.5-.5v-4c0-.3.2-.5.5-.5s.5.2.5.5v4c0 .3-.2.5-.5.5zm0-8c-.3 0-.5-.2-.5-.5v-4c0-.3.2-.5.5-.5s.5.2.5.5v4c0 .3-.2.5-.5.5z" fill="#616161"/></g></svg>