<svg xmlns="http://www.w3.org/2000/svg" viewBox="0 0 736 374" width="736" height="374"><g fill="none"><title>Timeline2</title><path fill="#fff" d="M0 0h736v374H0z"/><title>Layer 1</title><circle cx="156.368" cy="133.5" r="7.5" fill="#616161"/><circle cx="141.633" cy="318.583" r="3.5" fill="#479a5f"/><circle cx="595.839" cy="318.5" r="3.5" fill="#479a5f"/><path d="M108.633 319h510.1a.5.5 0 1 0 0-1h-510.1a.5.5 0 0 0 0 1zm518.1-1h-8v1h8zm-4.353-3.146l4 4v-.708l-4 4 .707.708 4-4 .353-.354-.353-.354-4-4zM94.033 133.4c3.868 0 7-3.132 7-7s-3.132-7-7-7c-3.867 0-7 3.132-7 7s3.133 7 7 7zm0 3.5c-4.672 0-14 2.345-14 7v3.5h28v-3.5c0-4.655-9.327-7-14-7zm0 36.3c3.868 0 7-3.132 7-7 0-3.867-3.132-7-7-7-3.867 0-7 3.133-7 7 0 3.868 3.133 7 7 7zm0 3.5c-4.672 0-14 2.345-14 7v3.5h28v-3.5c0-4.655-9.327-7-14-7zm0 37.5c3.868 0 7-3.132 7-7 0-3.867-3.132-7-7-7-3.867 0-7 3.133-7 7 0 3.868 3.133 7 7 7zm0 3.5c-4.672 0-14 2.345-14 7v3.5h28v-3.5c0-4.655-9.327-7-14-7zm0 37.5c3.868 0 7-3.132 7-7 0-3.867-3.132-7-7-7-3.867 0-7 3.133-7 7 0 3.868 3.133 7 7 7zm0 3.5c-4.672 0-14 2.345-14 7v3.5h28v-3.5c0-4.655-9.327-7-14-7z" fill="#616161"/><circle cx="173.483" cy="173.45" r="7.5" fill="#616161"/><circle cx="156.368" cy="173.45" r="7.5" fill="#616161"/><circle cx="187.983" cy="173.45" r="5" fill="#616161"/><circle cx="291.633" cy="133.5" r="14" fill="#616161"/><circle cx="255.133" cy="133.5" r="7.5" fill="#616161"/><circle cx="378.133" cy="133.4" r="7.5" fill="#616161"/><circle cx="189.351" cy="214.2" r="7.5" fill="#616161"/><circle cx="178.983" cy="256" r="14" fill="#616161"/><circle cx="155.034" cy="256" r="7.5" fill="#616161"/><circle cx="290.467" cy="174" r="5" fill="#616161"/><circle cx="311.217" cy="173.2" r="11" fill="#616161"/><circle cx="384.633" cy="255" r="14" fill="#616161"/><circle cx="550.633" cy="133.9" r="11" fill="#616161"/><circle cx="507.3" cy="133.567" r="5" fill="#616161"/><circle cx="490.8" cy="173.667" r="7.5" fill="#616161"/><circle cx="527.8" cy="173.333" r="11" fill="#616161"/><circle cx="566.8" cy="173.5" r="7.5" fill="#616161"/><circle cx="515.133" cy="214.667" r="7.5" fill="#616161"/><circle cx="490.8" cy="255.833" r="7.5" fill="#616161"/><text transform="translate(209.133 54.5)" fill="#757575"><tspan font-family="Roboto" font-size="10" font-weight="400" x="0" y="9">Features</tspan></text><text transform="translate(331.133 18)" fill="#757575"><tspan font-family="Roboto" font-size="10" font-weight="400" x="0" y="9">Targets</tspan></text><text transform="translate(316.133 345)" fill="#757575"><tspan font-family="Roboto" font-size="10" font-weight="400" x="0" y="9">Threshold Date</tspan></text><text transform="translate(160.633 292)" fill="#757575"><tspan font-family="Roboto" font-size="10" font-weight="400" x="0" y="9">Q1</tspan></text><text transform="translate(280.633 292)" fill="#757575"><tspan font-family="Roboto" font-size="10" font-weight="400" x="0" y="9">Q2</tspan></text><text transform="translate(403.633 292)" fill="#757575"><tspan font-family="Roboto" font-size="10" font-weight="400" x="0" y="9">Q3</tspan></text><text transform="translate(522.633 292)" fill="#757575"><tspan font-family="Roboto" font-size="10" font-weight="400" x="0" y="9">Q4</tspan></text><text transform="translate(585.633 329)" fill="#757575"><tspan font-family="Roboto" font-size="10" font-weight="400" x="0" y="9">Now</tspan></text><text transform="translate(632.967 313.5)" fill="#757575"><tspan font-family="Roboto" font-size="10" font-weight="400" x="0" y="9">Time</tspan></text><path d="M117.533 73h222.2a.5.5 0 0 0 0-1h-222.2a.5.5 0 0 0 0 1zm230.2-1h-8v1h8zm-4.353-3.146l4 4v-.708l-4 4 .707.708 4-4 .353-.354-.353-.354-4-4zM109.533 73h8v-1h-8zm4.354 3.146l-4-4v.708l4-4-.707-.708-4 4-.354.354.354.354 4 4z" fill="#5086ec"/><path d="M117.033 36.5h462.2a.5.5 0 1 0 0-1h-462.2a.5.5 0 0 0 0 1zm470.2-1h-8v1h8zm-4.353-3.146l4 4v-.708l-4 4 .707.708 4-4 .353-.354-.353-.354-4-4zM109.033 36.5h8v-1h-8zm4.354 3.146l-4-4v.708l4-4-.707-.708-4 4-.354.354.354.354 4 4z" fill="#6041b0"/><path d="M108.633 134h520a.5.5 0 1 0 0-1h-520a.5.5 0 0 0 0 1zm0 40h520a.5.5 0 1 0 0-1h-520a.5.5 0 0 0 0 1zm0 41h520a.5.5 0 1 0 0-1h-520a.5.5 0 0 0 0 1zm0 41h520a.5.5 0 1 0 0-1h-520a.5.5 0 0 0 0 1z" fill="#616161"/><path d="M108.633 308.5h117a.5.5 0 0 0 0-1h-117a.5.5 0 0 0 0 1zm121 0h115a.5.5 0 0 0 0-1h-115a.5.5 0 0 0 0 1z" fill="#ebb53e"/><path d="M353.633 308.5h113a.5.5 0 1 0 0-1h-113a.5.5 0 0 0 0 1zm117 0h117a.5.5 0 1 0 0-1h-117a.5.5 0 0 0 0 1z" fill="#eb6356"/><path d="M141.633 319.083h457a.5.5 0 1 0 0-1h-457a.5.5 0 0 0 0 1z" fill="#0f9d58"/><path d="M588.633 296.5c-.3 0-.5-.2-.5-.5v-1c0-.3.2-.5.5-.5s.5.2.5.5v1c0 .3-.2.5-.5.5zm0-5c-.3 0-.5-.2-.5-.5v-4c0-.3.2-.5.5-.5s.5.2.5.5v4c0 .3-.2.5-.5.5zm0-8c-.3 0-.5-.2-.5-.5v-4c0-.3.2-.5.5-.5s.5.2.5.5v4c0 .3-.2.5-.5.5zm0-8c-.3 0-.5-.2-.5-.5v-4c0-.3.2-.5.5-.5s.5.2.5.5v4c0 .3-.2.5-.5.5zm0-8c-.3 0-.5-.2-.5-.5v-4c0-.3.2-.5.5-.5s.5.2.5.5v4c0 .3-.2.5-.5.5zm0-8c-.3 0-.5-.2-.5-.5v-4c0-.3.2-.5.5-.5s.5.2.5.5v4c0 .3-.2.5-.5.5zm0-8c-.3 0-.5-.2-.5-.5v-4c0-.3.2-.5.5-.5s.5.2.5.5v4c0 .3-.2.5-.5.5zm0-8c-.3 0-.5-.2-.5-.5v-4c0-.3.2-.5.5-.5s.5.2.5.5v4c0 .3-.2.5-.5.5zm0-8c-.3 0-.5-.2-.5-.5v-4c0-.3.2-.5.5-.5s.5.2.5.5v4c0 .3-.2.5-.5.5zm0-8c-.3 0-.5-.2-.5-.5v-4c0-.3.2-.5.5-.5s.5.2.5.5v4c0 .3-.2.5-.5.5zm0-8c-.3 0-.5-.2-.5-.5v-4c0-.3.2-.5.5-.5s.5.2.5.5v4c0 .3-.2.5-.5.5zm0-8c-.3 0-.5-.2-.5-.5v-4c0-.3.2-.5.5-.5s.5.2.5.5v4c0 .3-.2.5-.5.5zm0-8c-.3 0-.5-.2-.5-.5v-4c0-.3.2-.5.5-.5s.5.2.5.5v4c0 .3-.2.5-.5.5zm0-8c-.3 0-.5-.2-.5-.5v-4c0-.3.2-.5.5-.5s.5.2.5.5v4c0 .3-.2.5-.5.5zm0-8c-.3 0-.5-.2-.5-.5v-4c0-.3.2-.5.5-.5s.5.2.5.5v4c0 .3-.2.5-.5.5zm0-8c-.3 0-.5-.2-.5-.5v-4c0-.3.2-.5.5-.5s.5.2.5.5v4c0 .3-.2.5-.5.5zm0-8c-.3 0-.5-.2-.5-.5v-4c0-.3.2-.5.5-.5s.5.2.5.5v4c0 .3-.2.5-.5.5zm0-8c-.3 0-.5-.2-.5-.5v-4c0-.3.2-.5.5-.5s.5.2.5.5v4c0 .3-.2.5-.5.5zm0-8c-.3 0-.5-.2-.5-.5v-4c0-.3.2-.5.5-.5s.5.2.5.5v4c0 .3-.2.5-.5.5zm0-8c-.3 0-.5-.2-.5-.5v-4c0-.3.2-.5.5-.5s.5.2.5.5v4c0 .3-.2.5-.5.5zm0-8c-.3 0-.5-.2-.5-.5v-4c0-.3.2-.5.5-.5s.5.2.5.5v4c0 .3-.2.5-.5.5zm0-8c-.3 0-.5-.2-.5-.5v-4c0-.3.2-.5.5-.5s.5.2.5.5v4c0 .3-.2.5-.5.5zm0-8c-.3 0-.5-.2-.5-.5v-4c0-.3.2-.5.5-.5s.5.2.5.5v4c0 .3-.2.5-.5.5zm0-8c-.3 0-.5-.2-.5-.5v-4c0-.3.2-.5.5-.5s.5.2.5.5v4c0 .3-.2.5-.5.5zm0-8c-.3 0-.5-.2-.5-.5v-4c0-.3.2-.5.5-.5s.5.2.5.5v4c0 .3-.2.5-.5.5zm0-8c-.3 0-.5-.2-.5-.5v-4c0-.3.2-.5.5-.5s.5.2.5.5v4c0 .3-.2.5-.5.5zM228.133 296c-.3 0-.5-.2-.5-.5v-1c0-.3.2-.5.5-.5s.5.2.5.5v1c0 .3-.2.5-.5.5zm0-5c-.3 0-.5-.2-.5-.5v-4c0-.3.2-.5.5-.5s.5.2.5.5v4c0 .3-.2.5-.5.5zm0-8c-.3 0-.5-.2-.5-.5v-4c0-.3.2-.5.5-.5s.5.2.5.5v4c0 .3-.2.5-.5.5zm0-8c-.3 0-.5-.2-.5-.5v-4c0-.3.2-.5.5-.5s.5.2.5.5v4c0 .3-.2.5-.5.5zm0-8c-.3 0-.5-.2-.5-.5v-4c0-.3.2-.5.5-.5s.5.2.5.5v4c0 .3-.2.5-.5.5zm0-8c-.3 0-.5-.2-.5-.5v-4c0-.3.2-.5.5-.5s.5.2.5.5v4c0 .3-.2.5-.5.5zm0-8c-.3 0-.5-.2-.5-.5v-4c0-.3.2-.5.5-.5s.5.2.5.5v4c0 .3-.2.5-.5.5zm0-8c-.3 0-.5-.2-.5-.5v-4c0-.3.2-.5.5-.5s.5.2.5.5v4c0 .3-.2.5-.5.5zm0-8c-.3 0-.5-.2-.5-.5v-4c0-.3.2-.5.5-.5s.5.2.5.5v4c0 .3-.2.5-.5.5zm0-8c-.3 0-.5-.2-.5-.5v-4c0-.3.2-.5.5-.5s.5.2.5.5v4c0 .3-.2.5-.5.5zm0-8c-.3 0-.5-.2-.5-.5v-4c0-.3.2-.5.5-.5s.5.2.5.5v4c0 .3-.2.5-.5.5zm0-8c-.3 0-.5-.2-.5-.5v-4c0-.3.2-.5.5-.5s.5.2.5.5v4c0 .3-.2.5-.5.5zm0-8c-.3 0-.5-.2-.5-.5v-4c0-.3.2-.5.5-.5s.5.2.5.5v4c0 .3-.2.5-.5.5zm0-8c-.3 0-.5-.2-.5-.5v-4c0-.3.2-.5.5-.5s.5.2.5.5v4c0 .3-.2.5-.5.5zm0-8c-.3 0-.5-.2-.5-.5v-4c0-.3.2-.5.5-.5s.5.2.5.5v4c0 .3-.2.5-.5.5zm0-8c-.3 0-.5-.2-.5-.5v-4c0-.3.2-.5.5-.5s.5.2.5.5v4c0 .3-.2.5-.5.5zm0-8c-.3 0-.5-.2-.5-.5v-4c0-.3.2-.5.5-.5s.5.2.5.5v4c0 .3-.2.5-.5.5zm0-8c-.3 0-.5-.2-.5-.5v-4c0-.3.2-.5.5-.5s.5.2.5.5v4c0 .3-.2.5-.5.5zm0-8c-.3 0-.5-.2-.5-.5v-4c0-.3.2-.5.5-.5s.5.2.5.5v4c0 .3-.2.5-.5.5zm0-8c-.3 0-.5-.2-.5-.5v-4c0-.3.2-.5.5-.5s.5.2.5.5v4c0 .3-.2.5-.5.5zm0-8c-.3 0-.5-.2-.5-.5v-4c0-.3.2-.5.5-.5s.5.2.5.5v4c0 .3-.2.5-.5.5zm0-8c-.3 0-.5-.2-.5-.5v-4c0-.3.2-.5.5-.5s.5.2.5.5v4c0 .3-.2.5-.5.5zm0-8c-.3 0-.5-.2-.5-.5v-4c0-.3.2-.5.5-.5s.5.2.5.5v4c0 .3-.2.5-.5.5zm0-8c-.3 0-.5-.2-.5-.5v-4c0-.3.2-.5.5-.5s.5.2.5.5v4c0 .3-.2.5-.5.5zm0-8c-.3 0-.5-.2-.5-.5v-4c0-.3.2-.5.5-.5s.5.2.5.5v4c0 .3-.2.5-.5.5zm0-8c-.3 0-.5-.2-.5-.5v-4c0-.3.2-.5.5-.5s.5.2.5.5v4c0 .3-.2.5-.5.5zM469.633 297.5c-.3 0-.5-.2-.5-.5v-1c0-.3.2-.5.5-.5s.5.2.5.5v1c0 .3-.2.5-.5.5zm0-5c-.3 0-.5-.2-.5-.5v-4c0-.3.2-.5.5-.5s.5.2.5.5v4c0 .3-.2.5-.5.5zm0-8c-.3 0-.5-.2-.5-.5v-4c0-.3.2-.5.5-.5s.5.2.5.5v4c0 .3-.2.5-.5.5zm0-8c-.3 0-.5-.2-.5-.5v-4c0-.3.2-.5.5-.5s.5.2.5.5v4c0 .3-.2.5-.5.5zm0-8c-.3 0-.5-.2-.5-.5v-4c0-.3.2-.5.5-.5s.5.2.5.5v4c0 .3-.2.5-.5.5zm0-8c-.3 0-.5-.2-.5-.5v-4c0-.3.2-.5.5-.5s.5.2.5.5v4c0 .3-.2.5-.5.5zm0-8c-.3 0-.5-.2-.5-.5v-4c0-.3.2-.5.5-.5s.5.2.5.5v4c0 .3-.2.5-.5.5zm0-8c-.3 0-.5-.2-.5-.5v-4c0-.3.2-.5.5-.5s.5.2.5.5v4c0 .3-.2.5-.5.5zm0-8c-.3 0-.5-.2-.5-.5v-4c0-.3.2-.5.5-.5s.5.2.5.5v4c0 .3-.2.5-.5.5zm0-8c-.3 0-.5-.2-.5-.5v-4c0-.3.2-.5.5-.5s.5.2.5.5v4c0 .3-.2.5-.5.5zm0-8c-.3 0-.5-.2-.5-.5v-4c0-.3.2-.5.5-.5s.5.2.5.5v4c0 .3-.2.5-.5.5zm0-8c-.3 0-.5-.2-.5-.5v-4c0-.3.2-.5.5-.5s.5.2.5.5v4c0 .3-.2.5-.5.5zm0-8c-.3 0-.5-.2-.5-.5v-4c0-.3.2-.5.5-.5s.5.2.5.5v4c0 .3-.2.5-.5.5zm0-8c-.3 0-.5-.2-.5-.5v-4c0-.3.2-.5.5-.5s.5.2.5.5v4c0 .3-.2.5-.5.5zm0-8c-.3 0-.5-.2-.5-.5v-4c0-.3.2-.5.5-.5s.5.2.5.5v4c0 .3-.2.5-.5.5zm0-8c-.3 0-.5-.2-.5-.5v-4c0-.3.2-.5.5-.5s.5.2.5.5v4c0 .3-.2.5-.5.5zm0-8c-.3 0-.5-.2-.5-.5v-4c0-.3.2-.5.5-.5s.5.2.5.5v4c0 .3-.2.5-.5.5zm0-8c-.3 0-.5-.2-.5-.5v-4c0-.3.2-.5.5-.5s.5.2.5.5v4c0 .3-.2.5-.5.5zm0-8c-.3 0-.5-.2-.5-.5v-4c0-.3.2-.5.5-.5s.5.2.5.5v4c0 .3-.2.5-.5.5zm0-8c-.3 0-.5-.2-.5-.5v-4c0-.3.2-.5.5-.5s.5.2.5.5v4c0 .3-.2.5-.5.5zm0-8c-.3 0-.5-.2-.5-.5v-4c0-.3.2-.5.5-.5s.5.2.5.5v4c0 .3-.2.5-.5.5zm0-8c-.3 0-.5-.2-.5-.5v-4c0-.3.2-.5.5-.5s.5.2.5.5v4c0 .3-.2.5-.5.5zm0-8c-.3 0-.5-.2-.5-.5v-4c0-.3.2-.5.5-.5s.5.2.5.5v4c0 .3-.2.5-.5.5zm0-8c-.3 0-.5-.2-.5-.5v-4c0-.3.2-.5.5-.5s.5.2.5.5v4c0 .3-.2.5-.5.5zm0-8c-.3 0-.5-.2-.5-.5v-4c0-.3.2-.5.5-.5s.5.2.5.5v4c0 .3-.2.5-.5.5zm0-8c-.3 0-.5-.2-.5-.5v-4c0-.3.2-.5.5-.5s.5.2.5.5v4c0 .3-.2.5-.5.5z" fill="#616161"/><g fill="#616161"><path d="M350.483 339.617c-.3 0-.5-.2-.5-.5v-3.7c0-.3.2-.5.5-.5s.5.2.5.5v3.7c0 .2-.3.5-.5.5zm0-7.7c-.3 0-.5-.2-.5-.5v-4c0-.3.2-.5.5-.5s.5.2.5.5v4c0 .3-.3.5-.5.5zm0-8c-.3 0-.5-.2-.5-.5v-4c0-.3.2-.5.5-.5s.5.2.5.5v4c0 .3-.3.5-.5.5zm0-8c-.3 0-.5-.2-.5-.5v-4c0-.3.2-.5.5-.5s.5.2.5.5v4c0 .3-.3.5-.5.5zm0-8c-.3 0-.5-.2-.5-.5v-4c0-.3.2-.5.5-.5s.5.2.5.5v4c0 .3-.3.5-.5.5zm0-8c-.3 0-.5-.2-.5-.5v-4c0-.3.2-.5.5-.5s.5.2.5.5v4c0 .3-.3.5-.5.5zm0-8c-.3 0-.5-.2-.5-.5v-4c0-.3.2-.5.5-.5s.5.2.5.5v4c0 .3-.3.5-.5.5zm0-8c-.3 0-.5-.2-.5-.5v-4c0-.3.2-.5.5-.5s.5.2.5.5v4c0 .3-.3.5-.5.5zm0-8c-.3 0-.5-.2-.5-.5v-4c0-.3.2-.5.5-.5s.5.2.5.5v4c0 .3-.3.5-.5.5zm0-8c-.3 0-.5-.2-.5-.5v-4c0-.3.2-.5.5-.5s.5.2.5.5v4c0 .3-.3.5-.5.5zm0-8c-.3 0-.5-.2-.5-.5v-4c0-.3.2-.5.5-.5s.5.2.5.5v4c0 .3-.3.5-.5.5zm0-8c-.3 0-.5-.2-.5-.5v-4c0-.3.2-.5.5-.5s.5.2.5.5v4c0 .3-.3.5-.5.5zm0-8c-.3 0-.5-.2-.5-.5v-4c0-.3.2-.5.5-.5s.5.2.5.5v4c0 .3-.3.5-.5.5zm0-8c-.3 0-.5-.2-.5-.5v-4c0-.3.2-.5.5-.5s.5.2.5.5v4c0 .3-.3.5-.5.5zm0-8c-.3 0-.5-.2-.5-.5v-4c0-.3.2-.5.5-.5s.5.2.5.5v4c0 .3-.3.5-.5.5zm0-8c-.3 0-.5-.2-.5-.5v-4c0-.3.2-.5.5-.5s.5.2.5.5v4c0 .3-.3.5-.5.5zm0-8c-.3 0-.5-.2-.5-.5v-4c0-.3.2-.5.5-.5s.5.2.5.5v4c0 .3-.3.5-.5.5zm0-8c-.3 0-.5-.2-.5-.5v-4c0-.3.2-.5.5-.5s.5.2.5.5v4c0 .3-.3.5-.5.5zm0-8c-.3 0-.5-.2-.5-.5v-4c0-.3.2-.5.5-.5s.5.2.5.5v4c0 .3-.3.5-.5.5zm0-8c-.3 0-.5-.2-.5-.5v-4c0-.3.2-.5.5-.5s.5.2.5.5v4c0 .3-.3.5-.5.5zm0-8c-.3 0-.5-.2-.5-.5v-4c0-.3.2-.5.5-.5s.5.2.5.5v4c0 .3-.3.5-.5.5zm0-8c-.3 0-.5-.2-.5-.5v-4c0-.3.2-.5.5-.5s.5.2.5.5v4c0 .3-.3.5-.5.5zm0-8c-.3 0-.5-.2-.5-.5v-4c0-.3.2-.5.5-.5s.5.2.5.5v4c0 .3-.3.5-.5.5zm0-8c-.3 0-.5-.2-.5-.5v-4c0-.3.2-.5.5-.5s.5.2.5.5v4c0 .3-.3.5-.5.5zm0-8c-.3 0-.5-.2-.5-.5v-4c0-.3.2-.5.5-.5s.5.2.5.5v4c0 .3-.3.5-.5.5zm0-8c-.3 0-.5-.2-.5-.5v-4c0-.3.2-.5.5-.5s.5.2.5.5v4c0 .3-.3.5-.5.5zm0-8c-.3 0-.5-.2-.5-.5v-4c0-.3.2-.5.5-.5s.5.2.5.5v4c0 .3-.3.5-.5.5zm0-8c-.3 0-.5-.2-.5-.5v-4c0-.3.2-.5.5-.5s.5.2.5.5v4c0 .3-.3.5-.5.5zm0-8c-.3 0-.5-.2-.5-.5v-4c0-.3.2-.5.5-.5s.5.2.5.5v4c0 .3-.3.5-.5.5zm0-8c-.3 0-.5-.2-.5-.5v-4c0-.3.2-.5.5-.5s.5.2.5.5v4c0 .3-.3.5-.5.5zm0-8c-.3 0-.5-.2-.5-.5v-4c0-.3.2-.5.5-.5s.5.2.5.5v4c0 .3-.3.5-.5.5z"/><path d="M353.083 334.717c1.4 1.4 1.4 3.6 0 4.9-1.4 1.4-3.6 1.4-4.9 0-1.4-1.4-1.4-3.6 0-4.9 1.3-1.3 3.5-1.3 4.9 0"/></g></g></svg>